<?xml version="1.0" encoding="UTF-8"?> <svg xmlns="http://www.w3.org/2000/svg" width="564" height="389" viewBox="0 0 564 389" fill="none"><path d="M419.831 73.1371H125.037V55.5719C125.037 55.2253 125.268 54.9941 125.615 54.9941H419.138C419.485 54.9941 419.716 55.2253 419.716 55.5719V73.1371H419.831Z" fill="#EBEBEB"></path><path d="M136.247 63.8916C136.247 65.3939 134.976 66.6651 133.474 66.6651C131.971 66.6651 130.7 65.3939 130.7 63.8916C130.7 62.3893 131.971 61.1182 133.474 61.1182C134.976 61.1182 136.247 62.3893 136.247 63.8916Z" fill="white"></path><path d="M144.106 63.8916C144.106 65.3939 142.834 66.6651 141.332 66.6651C139.83 66.6651 138.559 65.3939 138.559 63.8916C138.559 62.3893 139.83 61.1182 141.332 61.1182C142.834 61.1182 144.106 62.3893 144.106 63.8916Z" fill="white"></path><path d="M151.963 63.8916C151.963 65.3939 150.692 66.6651 149.189 66.6651C147.687 66.6651 146.416 65.3939 146.416 63.8916C146.416 62.3893 147.687 61.1182 149.189 61.1182C150.692 61.1182 151.963 62.3893 151.963 63.8916Z" fill="white"></path><path d="M390.709 88.9697H260.126V234.344H390.709V88.9697Z" fill="#FFF3DB"></path><path d="M365.171 146.866V274.444H230.196V110.002H328.191L365.171 146.866Z" fill="white"></path><path d="M365.172 146.866H328.192V110.002L365.172 146.866Z" fill="#FFC24D"></path><path d="M328.539 146.635H364.478L328.539 110.695V146.635ZM365.865 147.212H327.961V109.309L365.865 147.212Z" fill="#FFC04D"></path><path d="M366.095 113.006H379.269V107.69C379.269 103.414 376.264 99.9476 372.682 99.9476C368.984 99.9476 366.095 103.414 366.095 107.69V113.006ZM381.002 114.624H364.361V107.575C364.361 102.374 368.059 98.0986 372.682 98.0986C377.304 98.0986 381.002 102.374 381.002 107.575V114.624Z" fill="white"></path><path d="M383.199 111.042H362.167V126.758H383.199V111.042Z" fill="white"></path><path d="M372.682 124.447C372.22 124.447 371.873 124.1 371.873 123.638V120.286C371.873 119.824 372.22 119.478 372.682 119.478C373.144 119.478 373.491 119.824 373.491 120.286V123.638C373.491 123.984 373.144 124.447 372.682 124.447Z" fill="#FFBF26"></path><path d="M372.682 116.242C371.873 116.242 371.295 116.935 371.295 117.629C371.295 118.438 371.988 119.015 372.682 119.015C373.491 119.015 374.068 118.322 374.068 117.629C374.184 116.935 373.491 116.242 372.682 116.242ZM372.682 120.864C370.948 120.864 369.562 119.478 369.562 117.744C369.562 116.011 370.948 114.624 372.682 114.624C374.415 114.624 375.802 116.011 375.802 117.744C375.802 119.478 374.415 120.864 372.682 120.864Z" fill="#FFC24D"></path><path d="M414.516 235.153L338.708 234.922C338.246 234.922 337.899 234.575 337.899 234.113C337.899 233.651 338.246 233.304 338.708 233.304L414.516 233.535C415.556 233.535 416.596 233.073 417.405 232.264C418.445 231.224 418.907 229.837 418.907 228.335V4.03255C418.907 3.57031 419.254 3.22363 419.716 3.22363C420.178 3.22363 420.525 3.57031 420.525 4.03255V228.335C420.525 230.299 419.832 232.148 418.445 233.42C417.405 234.575 416.018 235.153 414.516 235.153Z" fill="#FFC24D"></path><path d="M47.9575 259.42H6.70248C3.00455 259.42 0 256.415 0 252.717V211.462C0 207.764 3.00455 204.76 6.70248 204.76H47.9575C51.6554 204.76 54.66 207.764 54.66 211.462V252.717C54.66 256.415 51.6554 259.42 47.9575 259.42Z" fill="#FFF3DB"></path><path d="M496.15 97H527.85C530.691 97 533 94.6913 533 91.8499V60.1501C533 57.3087 530.691 55 527.85 55H496.15C493.309 55 491 57.3087 491 60.1501V91.8499C491 94.6913 493.309 97 496.15 97Z" fill="#FFF3DB"></path><path d="M101.116 238.504H66.4476C65.8698 238.504 65.292 238.042 65.292 237.349V226.37C65.292 225.793 65.7542 225.215 66.4476 225.215H101.116C101.693 225.215 102.271 225.677 102.271 226.37V237.349C102.271 238.042 101.693 238.504 101.116 238.504Z" fill="#F7F8F9"></path><path d="M101.116 258.958H77.0794C76.5016 258.958 75.9238 258.496 75.9238 257.803V246.825C75.9238 246.247 76.3861 245.669 77.0794 245.669H101.116C101.694 245.669 102.272 246.131 102.272 246.825V257.803C102.272 258.496 101.694 258.958 101.116 258.958Z" fill="#D4F0E2"></path><path d="M454.877 97H473.123C473.561 97 474 96.6522 474 96.1304V87.8696C474 87.4348 473.649 87 473.123 87H454.877C454.439 87 454 87.3478 454 87.8696V96.1304C454 96.6522 454.439 97 454.877 97Z" fill="#D4F0E2"></path><path d="M405.877 259H424.123C424.561 259 425 258.652 425 258.13V249.87C425 249.435 424.649 249 424.123 249H405.877C405.439 249 405 249.348 405 249.87V258.13C405 258.652 405.439 259 405.877 259Z" fill="#D4F0E2"></path><path d="M101.693 288.08H1.50228C0.924481 288.08 0.34668 287.618 0.34668 286.924V270.63C0.34668 270.052 0.808921 269.475 1.50228 269.475H101.693C102.271 269.475 102.849 269.937 102.849 270.63V286.924C102.733 287.502 102.271 288.08 101.693 288.08Z" fill="#EBEBEB"></path><path d="M454.891 119H532.109C532.555 119 533 118.652 533 118.13V105.87C533 105.435 532.644 105 532.109 105H454.891C454.445 105 454 105.348 454 105.87V118.13C454.089 118.565 454.445 119 454.891 119Z" fill="#EBEBEB"></path><path d="M77.0788 205.801C76.9632 205.801 76.8477 205.916 76.8477 206.032V217.01C76.8477 217.126 76.9632 217.241 77.0788 217.241H101.115C101.231 217.241 101.346 217.126 101.346 217.01V206.032C101.346 205.916 101.231 205.801 101.115 205.801H77.0788ZM101.115 218.975H77.0788C76.0388 218.975 75.1143 218.05 75.1143 217.01V206.032C75.1143 204.992 76.0388 204.067 77.0788 204.067H101.115C102.155 204.067 103.08 204.992 103.08 206.032V217.01C103.08 218.05 102.155 218.975 101.115 218.975Z" fill="#A6DEC5"></path><path d="M335.934 350.02H173.919C168.141 350.02 163.519 346.669 163.519 342.509V312.578C163.519 312.116 163.865 311.77 164.327 311.77C164.79 311.77 165.136 312.116 165.136 312.578V342.509C165.136 345.744 169.065 348.402 173.919 348.402H335.819C336.281 348.402 336.628 348.749 336.628 349.211C336.743 349.558 336.397 350.02 335.934 350.02Z" fill="#0F4FE1"></path><path d="M164.326 377.424C163.864 377.424 163.517 377.078 163.517 376.616V308.084C163.517 305.773 161.437 303.808 159.01 303.808H54.6595C54.1973 303.808 53.8506 303.462 53.8506 302.999C53.8506 302.537 54.1973 302.19 54.6595 302.19H158.895C162.362 302.19 165.135 304.848 165.135 308.084V376.5C165.135 377.078 164.788 377.424 164.326 377.424Z" fill="#0F4FE3"></path><path d="M16.8066 176C17.2689 176 17.6156 176.347 17.6156 176.809L17.6155 297.916C17.6155 300.227 19.6957 302.192 22.1224 302.192L126.473 302.192C126.936 302.192 127.282 302.538 127.282 303.001C127.282 303.463 126.936 303.81 126.473 303.81L22.238 303.81C18.7711 303.81 15.9977 301.152 15.9977 297.916L15.9978 176.924C15.9978 176.347 16.3444 176 16.8066 176Z" fill="#0F4FE3"></path><path d="M145.259 195.862C142.255 195.862 139.943 198.289 139.943 201.178C139.943 204.067 142.37 206.494 145.259 206.494C148.264 206.494 150.575 204.067 150.575 201.178C150.575 198.289 148.148 195.862 145.259 195.862ZM145.259 208.227C141.33 208.227 138.21 205.107 138.21 201.178C138.21 197.249 141.33 194.129 145.259 194.129C149.188 194.129 152.308 197.249 152.308 201.178C152.308 204.992 149.073 208.227 145.259 208.227Z" fill="#FFC24D"></path><path d="M146.647 225.678C146.185 225.678 145.838 225.331 145.838 224.869V207.419C145.838 206.957 146.185 206.61 146.647 206.61C147.109 206.61 147.456 206.957 147.456 207.419V224.869C147.456 225.331 147.109 225.678 146.647 225.678Z" fill="#FFC24D"></path><path d="M146.645 225.677H139.596C139.134 225.677 138.787 225.331 138.787 224.868C138.787 224.406 139.134 224.06 139.596 224.06H146.645C147.107 224.06 147.454 224.406 147.454 224.868C147.454 225.331 147.107 225.677 146.645 225.677Z" fill="#FFC24D"></path><path d="M146.645 219.899H139.596C139.134 219.899 138.787 219.552 138.787 219.09C138.787 218.628 139.134 218.281 139.596 218.281H146.645C147.107 218.281 147.454 218.628 147.454 219.09C147.454 219.552 147.107 219.899 146.645 219.899Z" fill="#FFC24D"></path><path d="M165.715 312.231H162.363C160.052 312.231 158.203 310.382 158.203 308.071V304.72C158.203 302.409 160.052 300.56 162.363 300.56H166.061C168.141 300.56 169.875 302.293 169.875 304.373V308.071C169.99 310.267 168.141 312.231 165.715 312.231Z" fill="white"></path><path d="M165.715 387.711H162.363C160.052 387.711 158.203 385.862 158.203 383.55V380.199C158.203 377.888 160.052 376.039 162.363 376.039H166.061C168.141 376.039 169.875 377.772 169.875 379.853V383.55C169.99 385.746 168.141 387.711 165.715 387.711Z" fill="white"></path><path d="M162.479 301.254C160.63 301.254 159.127 302.756 159.127 304.605V307.956C159.127 309.805 160.63 311.308 162.479 311.308H165.83C167.679 311.308 169.181 309.805 169.181 307.956V304.258C169.181 302.641 167.794 301.254 166.176 301.254H162.479ZM165.714 313.041H162.363C159.59 313.041 157.278 310.73 157.278 307.956V304.605C157.278 301.832 159.59 299.521 162.363 299.521H166.061C168.603 299.521 170.799 301.601 170.799 304.258V307.956C170.799 310.73 168.603 313.041 165.714 313.041Z" fill="#FFC24D"></path><path d="M162.479 376.733C160.63 376.733 159.127 378.236 159.127 380.085V383.436C159.127 385.285 160.63 386.787 162.479 386.787H165.83C167.679 386.787 169.181 385.285 169.181 383.436V379.738C169.181 378.12 167.794 376.733 166.176 376.733H162.479ZM165.714 388.521H162.363C159.59 388.521 157.278 386.209 157.278 383.436V380.085C157.278 377.311 159.59 375 162.363 375H166.061C168.603 375 170.799 377.08 170.799 379.738V383.436C170.799 386.209 168.603 388.521 165.714 388.521Z" fill="#FFC24D"></path><path d="M556.192 235.153H405.617C405.154 235.153 404.808 234.806 404.808 234.344C404.808 233.882 405.154 233.535 405.617 233.535H556.192C556.654 233.535 557 233.882 557 234.344C557 234.806 556.654 235.153 556.192 235.153Z" fill="#FFC24D"></path><path d="M355.002 349.788H338.477C338.014 349.788 337.668 349.442 337.668 348.979C337.668 348.517 338.014 348.171 338.477 348.171H355.002C373.491 348.171 382.39 332.686 382.39 332.454C382.39 332.339 386.55 325.983 389.554 310.267C390.71 303.911 391.057 295.128 390.363 284.266C389.785 274.559 387.128 273.172 384.585 273.172C382.736 273.172 378.46 273.75 377.998 278.603C377.998 282.648 378.114 285.19 378.114 285.19C378.114 285.537 377.883 285.884 377.536 285.999C377.189 286.115 376.843 285.999 376.612 285.768C376.496 285.653 376.496 285.652 376.496 285.306C376.38 284.728 376.38 283.226 376.38 279.412C376.38 279.181 376.38 278.95 376.38 278.719C376.38 276.985 376.38 275.021 376.38 272.825C376.38 269.59 373.954 266.238 370.025 266.238C364.709 266.238 363.438 270.399 363.438 272.016C363.207 281.723 363.207 283.804 363.207 283.804C363.207 284.266 362.86 284.612 362.398 284.612C361.935 284.612 361.589 284.266 361.589 283.804C361.589 283.804 361.242 274.674 360.895 266.701C360.78 264.389 359.162 260.923 355.002 260.923C351.651 260.923 349.802 262.887 349.455 266.816C348.762 273.75 348.53 279.412 348.53 282.186V283.919C348.53 284.381 348.184 284.728 347.721 284.728C347.259 284.728 346.913 284.381 346.913 283.919C346.913 283.919 346.913 283.226 346.913 282.186L347.49 243.82C347.49 243.82 347.49 239.197 344.948 236.539C343.792 235.384 342.175 234.69 340.326 234.69C338.361 234.69 336.859 235.268 335.703 236.539C333.276 239.197 333.623 243.935 333.623 243.935C333.623 243.935 333.623 243.935 333.623 244.051L333.97 299.404C333.97 299.751 333.739 300.098 333.392 300.213C333.045 300.329 332.699 300.213 332.468 299.866C332.468 299.751 327.152 291.777 321.027 285.884C316.289 281.377 313.978 282.417 312.591 283.572C307.738 287.617 313.631 295.36 313.631 295.36C313.862 295.706 313.862 296.284 313.516 296.515C313.169 296.746 312.591 296.746 312.36 296.4C309.933 293.279 306.582 286.346 311.551 282.301C315.942 278.488 320.68 283.11 322.298 284.612C326.574 288.773 330.387 293.857 332.468 296.631L332.005 243.935C332.005 243.473 331.659 238.388 334.548 235.268C335.934 233.766 337.899 232.957 340.326 232.957C342.752 232.957 344.717 233.766 346.219 235.268C349.224 238.388 349.224 243.473 349.224 243.704L348.877 262.656C350.033 260.345 352.228 259.074 355.117 259.074C359.855 259.074 362.629 262.887 362.744 266.469C362.744 267.163 362.744 267.856 362.86 268.665C364.015 266.469 366.327 264.389 370.256 264.389C374.763 264.389 378.229 267.972 378.229 272.594C378.229 273.056 378.229 273.634 378.229 274.096C379.501 272.479 381.581 271.439 384.816 271.439C390.71 271.439 391.865 278.141 392.212 284.035C392.906 295.013 392.559 303.911 391.288 310.382C388.283 326.099 384.239 332.686 383.892 333.148C383.43 334.072 374.069 349.788 355.002 349.788Z" fill="#0F4FE3"></path><path d="M319.062 180.493H244.179V192.974H319.062V180.493Z" fill="#F7F8F9"></path><path d="M319.062 149.522H244.179V162.003H319.062V149.522Z" fill="#F7F8F9"></path><path d="M297.799 212.734H244.179V225.215H297.799V212.734Z" fill="#F7F8F9"></path><path d="M339.052 355.219H335.701C333.39 355.219 331.541 353.37 331.541 351.059V347.708C331.541 345.397 333.39 343.548 335.701 343.548H339.399C341.479 343.548 343.213 345.281 343.213 347.361V351.059C343.328 353.37 341.364 355.219 339.052 355.219Z" fill="white"></path><path d="M335.702 344.356C333.853 344.356 332.351 345.859 332.351 347.708V351.059C332.351 352.908 333.853 354.41 335.702 354.41H339.053C340.902 354.41 342.404 352.908 342.404 351.059V347.361C342.404 345.743 341.018 344.356 339.4 344.356H335.702ZM339.053 356.144H335.702C332.928 356.144 330.617 353.832 330.617 351.059V347.708C330.617 344.934 332.928 342.623 335.702 342.623H339.4C341.942 342.623 344.138 344.703 344.138 347.361V351.059C344.138 353.832 341.827 356.144 339.053 356.144Z" fill="#FFC24D"></path><line x1="16" y1="176.245" x2="103" y2="176.245" stroke="#0F4FE3" stroke-width="1.51"></line><path d="M17.5114 181.88H14.1602C11.849 181.88 10 180.031 10 177.719V174.368C10 172.057 11.849 170.208 14.1602 170.208H17.8581C19.9382 170.208 21.6716 171.941 21.6716 174.021V177.719C21.7872 180.031 19.8226 181.88 17.5114 181.88Z" fill="white"></path><path d="M421.511 13.6716H418.16C415.849 13.6716 414 11.8226 414 9.51141V6.16017C414 3.84897 415.849 2 418.16 2H421.858C423.938 2 425.672 3.73341 425.672 5.81349V9.51141C425.787 11.8226 423.823 13.6716 421.511 13.6716Z" fill="white"></path><path d="M558.511 240.672H555.16C552.849 240.672 551 238.823 551 236.511V233.16C551 230.849 552.849 229 555.16 229H558.858C560.938 229 562.672 230.733 562.672 232.813V236.511C562.787 238.823 560.823 240.672 558.511 240.672Z" fill="white"></path><path d="M102.511 181.88H99.1602C96.849 181.88 95 180.031 95 177.719V174.368C95 172.057 96.849 170.208 99.1602 170.208H102.858C104.938 170.208 106.672 171.941 106.672 174.021V177.719C106.787 180.031 104.823 181.88 102.511 181.88Z" fill="white"></path><path d="M15.0847 171.733C13.2357 171.733 11.7334 173.236 11.7334 175.085V178.436C11.7334 180.285 13.2357 181.787 15.0847 181.787H18.4359C20.2848 181.787 21.7872 180.285 21.7872 178.436V174.738C21.7872 173.12 20.4004 171.733 18.7825 171.733H15.0847ZM18.4359 183.521H15.0847C12.3112 183.521 10 181.209 10 178.436V175.085C10 172.311 12.3112 170 15.0847 170H18.7825C21.3249 170 23.5206 172.08 23.5206 174.738V178.436C23.5206 181.209 21.2093 183.521 18.4359 183.521Z" fill="#FFC24D"></path><path d="M100.085 171.733C98.2357 171.733 96.7334 173.236 96.7334 175.085V178.436C96.7334 180.285 98.2357 181.787 100.085 181.787H103.436C105.285 181.787 106.787 180.285 106.787 178.436V174.738C106.787 173.12 105.4 171.733 103.783 171.733H100.085ZM103.436 183.521H100.085C97.3112 183.521 95 181.209 95 178.436V175.085C95 172.311 97.3112 170 100.085 170H103.783C106.325 170 108.521 172.08 108.521 174.738V178.436C108.521 181.209 106.209 183.521 103.436 183.521Z" fill="#FFC24D"></path><path d="M418.085 1.7334C416.236 1.7334 414.733 3.2357 414.733 5.08466V8.4359C414.733 10.2849 416.236 11.7872 418.085 11.7872H421.436C423.285 11.7872 424.787 10.2849 424.787 8.4359V4.73798C424.787 3.12013 423.4 1.7334 421.783 1.7334H418.085ZM421.436 13.5206H418.085C415.311 13.5206 413 11.2093 413 8.4359V5.08466C413 2.31122 415.311 0 418.085 0H421.783C424.325 0 426.521 2.08009 426.521 4.73798V8.4359C426.521 11.2093 424.209 13.5206 421.436 13.5206Z" fill="#0F4FE3"></path><path d="M555.085 228.733C553.236 228.733 551.733 230.236 551.733 232.085V235.436C551.733 237.285 553.236 238.787 555.085 238.787H558.436C560.285 238.787 561.787 237.285 561.787 235.436V231.738C561.787 230.12 560.4 228.733 558.783 228.733H555.085ZM558.436 240.521H555.085C552.311 240.521 550 238.209 550 235.436V232.085C550 229.311 552.311 227 555.085 227H558.783C561.325 227 563.521 229.08 563.521 231.738V235.436C563.521 238.209 561.209 240.521 558.436 240.521Z" fill="#0F4FE3"></path><path d="M186.396 89.5778H186.063L185.935 89.8848L180.233 103.509L180.104 103.819L180.341 104.056L191.596 115.311C192.497 116.212 192.53 117.754 191.584 118.836L175.528 134.892C174.627 135.793 173.085 135.826 172.003 134.881L160.908 123.785L160.672 123.55L160.365 123.676L146.814 129.23L146.504 129.357V129.692V145.538C146.504 146.891 145.395 148 144.042 148H121.236C119.883 148 118.774 146.891 118.774 145.538V129.692V129.36L118.468 129.231L104.918 123.53L104.608 123.4L104.37 123.637L93.1151 134.892C92.2141 135.793 90.6722 135.826 89.5902 134.881L73.5337 118.824C72.6326 117.923 72.6 116.381 73.5451 115.299L84.6405 104.204L84.8753 103.969L84.75 103.662L79.1965 90.0373L79.0697 89.726H78.7335H62.9618C61.609 89.726 60.5 88.617 60.5 87.2642V64.384C60.5 63.0311 61.609 61.9222 62.9618 61.9222H78.7335H79.0663L79.1948 61.6152L84.8964 47.9907L85.0258 47.6813L84.7887 47.4442L73.5337 36.1892C72.6326 35.2882 72.6 33.7463 73.5451 32.6643L89.6016 16.6078C90.5026 15.7068 92.0446 15.6742 93.1266 16.6192L104.222 27.7146L104.457 27.9499L104.765 27.8237L118.316 22.2703L118.626 22.1431V21.8077V5.96183C118.626 4.60897 119.735 3.5 121.088 3.5H143.82C145.173 3.5 146.282 4.60897 146.282 5.96183V21.8077V22.1397L146.588 22.2685L160.138 27.9701L160.448 28.1004L160.686 27.8627L171.941 16.6078C172.842 15.7068 174.383 15.6742 175.465 16.6192L191.522 32.6757C192.423 33.5767 192.456 35.1188 191.51 36.2008L180.415 47.2961L180.18 47.5309L180.306 47.8384L185.859 61.4628L185.986 61.7741H186.322H202.094C203.447 61.7741 204.556 62.8831 204.556 64.2359V87.116C204.556 88.4689 203.447 89.5778 202.094 89.5778H186.396ZM166.904 75.5649L166.904 75.5629C166.829 56.6313 151.577 41.226 132.565 41.226C113.629 41.226 98.2259 56.6292 98.2259 75.5649C98.2259 94.5006 113.629 109.904 132.565 109.904C151.501 109.904 166.904 94.5006 166.904 75.5649Z" stroke="#FFC24D"></path></svg> 