<?xml version="1.0" encoding="UTF-8"?> <svg xmlns="http://www.w3.org/2000/svg" width="688" height="395" viewBox="0 0 688 395" fill="none"><path d="M306 241H304V370H306V241Z" fill="#FFC24D"></path><path d="M466.862 112.487H465.35V182.619H466.862V112.487Z" fill="#29B270"></path><path d="M541.257 106.986H470.574V108.499H541.257V106.986Z" fill="#29B270"></path><path d="M676.846 186.333H470.574V187.845H676.846V186.333Z" fill="#29B270"></path><path d="M546.51 11H545V102H546.51V11Z" fill="#29B270"></path><path d="M461.361 187.433C461.361 184.82 463.424 182.757 466.037 182.757C468.65 182.757 470.712 184.82 470.712 187.433C470.712 190.046 468.65 192.108 466.037 192.108C463.424 192.246 461.361 190.046 461.361 187.433Z" fill="white"></path><path d="M466.038 183.582C463.837 183.582 462.05 185.37 462.05 187.57C462.05 189.77 463.837 191.558 466.038 191.558C468.238 191.558 470.026 189.77 470.026 187.57C470.026 185.37 468.238 183.582 466.038 183.582ZM466.038 192.933C463.012 192.933 460.537 190.458 460.537 187.433C460.537 184.407 463.012 181.932 466.038 181.932C469.063 181.932 471.538 184.407 471.538 187.433C471.538 190.458 469.063 192.933 466.038 192.933Z" fill="#FFC24D"></path><path d="M681.501 183.582C679.3 183.582 677.513 185.37 677.513 187.57C677.513 189.77 679.3 191.558 681.501 191.558C683.701 191.558 685.488 189.77 685.488 187.57C685.488 185.37 683.701 183.582 681.501 183.582ZM681.501 192.933C678.475 192.933 676 190.458 676 187.433C676 184.407 678.475 181.932 681.501 181.932C684.526 181.932 687.001 184.407 687.001 187.433C687.001 190.458 684.526 192.933 681.501 192.933Z" fill="#FFC24D"></path><path d="M466.038 103.686C463.837 103.686 462.05 105.474 462.05 107.674C462.05 109.875 463.837 111.662 466.038 111.662C468.238 111.662 470.026 109.875 470.026 107.674C470.026 105.474 468.238 103.686 466.038 103.686ZM466.038 113.175C463.012 113.175 460.537 110.7 460.537 107.674C460.537 104.649 463.012 102.174 466.038 102.174C469.063 102.174 471.538 104.649 471.538 107.674C471.538 110.7 469.063 113.175 466.038 113.175Z" fill="#FFC24D"></path><path d="M546.07 103.274C543.87 103.274 542.082 105.062 542.082 107.262C542.082 109.462 543.87 111.25 546.07 111.25C548.27 111.25 550.058 109.462 550.058 107.262C550.058 105.062 548.27 103.274 546.07 103.274ZM546.07 112.625C543.045 112.625 540.569 110.15 540.569 107.125C540.569 104.099 543.045 101.624 546.07 101.624C549.095 101.624 551.571 104.099 551.571 107.125C551.571 110.287 549.095 112.625 546.07 112.625Z" fill="#FFC24D"></path><path d="M546.07 1.65017C543.87 1.65017 542.082 3.43786 542.082 5.63809C542.082 7.83833 543.87 9.62602 546.07 9.62602C548.27 9.62602 550.058 7.83833 550.058 5.63809C550.058 3.43786 548.27 1.65017 546.07 1.65017ZM546.07 11.0012C543.045 11.0012 540.569 8.5259 540.569 5.50058C540.569 2.47526 543.045 0 546.07 0C549.095 0 551.571 2.47526 551.571 5.50058C551.571 8.66342 549.095 11.0012 546.07 11.0012Z" fill="#FFC24D"></path><path d="M10.1762 149.341C10.1762 151.954 8.11347 154.017 5.50069 154.017C2.88791 154.017 0.825195 151.954 0.825195 149.341C0.825195 146.728 2.88791 144.666 5.50069 144.666C8.11347 144.666 10.1762 146.728 10.1762 149.341Z" fill="white"></path><path d="M5.50058 145.491C3.30035 145.491 1.51266 147.278 1.51266 149.478C1.51266 151.679 3.30035 153.466 5.50058 153.466C7.70082 153.466 9.4885 151.679 9.4885 149.478C9.4885 147.141 7.70082 145.491 5.50058 145.491ZM5.50058 154.841C2.47526 154.841 0 152.366 0 149.341C0 146.316 2.47526 143.84 5.50058 143.84C8.5259 143.84 11.0012 146.316 11.0012 149.341C10.8637 152.366 8.5259 154.841 5.50058 154.841Z" fill="#29B270"></path><path d="M353.961 107.262C353.824 107.262 353.549 107.125 353.411 106.987C353.136 106.712 353.136 106.162 353.411 105.887L382.289 77.009C382.564 76.734 383.114 76.734 383.39 77.009C383.665 77.284 383.665 77.8341 383.39 78.1091L354.511 106.987C354.374 107.125 354.099 107.262 353.961 107.262Z" fill="#29B270"></path><path d="M348.462 108.499C348.462 110.837 350.387 112.762 352.725 112.762C355.063 112.762 356.988 110.837 356.988 108.499C356.988 106.162 355.063 104.236 352.725 104.236C350.387 104.236 348.462 106.162 348.462 108.499Z" fill="white"></path><path d="M352.725 105.061C350.8 105.061 349.287 106.574 349.287 108.499C349.287 110.425 350.8 111.937 352.725 111.937C354.65 111.937 356.163 110.425 356.163 108.499C356.163 106.574 354.65 105.061 352.725 105.061ZM352.725 113.45C349.975 113.45 347.774 111.25 347.774 108.499C347.774 105.749 349.975 103.549 352.725 103.549C355.475 103.549 357.675 105.749 357.675 108.499C357.675 111.25 355.475 113.45 352.725 113.45Z" fill="#FFC24D"></path><path d="M351.211 150.579C374.451 150.579 393.428 131.602 393.428 108.362C393.428 85.1218 374.451 66.1448 351.211 66.1448C327.971 66.1448 308.994 85.1218 308.994 108.362H295.105C295.105 77.421 320.271 52.2559 351.211 52.2559C382.152 52.2559 407.317 77.421 407.317 108.362C407.317 139.303 382.152 164.468 351.211 164.468V150.579Z" fill="#7FD1A9"></path><path d="M407.457 108.362C407.457 139.303 382.291 164.468 351.351 164.468V150.579C374.591 150.579 393.568 131.602 393.568 108.362H407.457Z" fill="white"></path><path d="M252.614 175.469H100.522V367.027H252.614V175.469Z" fill="#EBEBEB"></path><path d="M201.597 245.905V394.42H44.5557V203H158.693L201.597 245.905Z" fill="white"></path><path d="M201.597 245.905H158.692V203L201.597 245.905Z" fill="#29B270"></path><path d="M150.028 291.834H52.3926V304.348H150.028V291.834Z" fill="#F7F8F9"></path><path d="M150.028 260.757H52.3926V273.271H150.028V260.757Z" fill="#F7F8F9"></path><path d="M122.938 324.151H52.3926V336.665H122.938V324.151Z" fill="#F7F8F9"></path><path d="M218.512 203.109H235.701V196.096C235.701 190.595 231.851 186.057 227.175 186.057C222.5 186.057 218.649 190.595 218.649 196.096V203.109H218.512ZM237.214 204.622H217.137V196.096C217.137 189.77 221.675 184.544 227.175 184.544C232.676 184.544 237.214 189.77 237.214 196.096V204.622Z" fill="white"></path><path d="M240.238 200.358H213.973V220.023H240.238V200.358Z" fill="white"></path><path d="M227.861 211.91H226.349V216.173H227.861V211.91Z" fill="#29B270"></path><path d="M227.174 206.685C226.074 206.685 225.111 207.647 225.111 208.747C225.111 209.847 226.074 210.81 227.174 210.81C228.274 210.81 229.237 209.847 229.237 208.747C229.237 207.647 228.274 206.685 227.174 206.685ZM227.174 212.323C225.249 212.323 223.599 210.672 223.599 208.747C223.599 206.822 225.249 205.172 227.174 205.172C229.099 205.172 230.749 206.822 230.749 208.747C230.749 210.672 229.099 212.323 227.174 212.323Z" fill="#29B270"></path><path d="M327.835 147.966C327.835 164.468 314.359 177.945 297.857 177.945C281.355 177.945 267.879 164.468 267.879 147.966C267.879 131.465 281.355 117.988 297.857 117.988C314.496 117.988 327.835 131.465 327.835 147.966Z" fill="#29B270"></path><path d="M305.145 240.376L285.205 228.412V159.93H305.145V240.376Z" fill="#29B270"></path><path d="M313.122 234.738L307.621 240.238V229.375L313.122 234.738Z" fill="#29B270"></path><path d="M313.122 222.361L307.621 227.724V216.861L313.122 222.361Z" fill="#29B270"></path><path d="M313.122 209.847L307.621 215.348V204.347L313.122 209.847Z" fill="#29B270"></path><path d="M317.11 197.334L307.621 202.834V191.833L317.11 197.334Z" fill="#29B270"></path><path d="M317.11 184.82L307.621 190.32V179.457L317.11 184.82Z" fill="#29B270"></path><path d="M264.853 148.516H9.35059V150.028H264.853V148.516Z" fill="#29B270"></path><path d="M271.865 148.791C271.865 151.404 269.802 153.466 267.189 153.466C264.576 153.466 262.514 151.404 262.514 148.791C262.514 146.178 264.576 144.115 267.189 144.115C269.664 144.115 271.865 146.178 271.865 148.791Z" fill="white"></path><path d="M267.054 144.803C264.854 144.803 263.066 146.591 263.066 148.791C263.066 150.991 264.854 152.779 267.054 152.779C269.255 152.779 271.042 150.991 271.042 148.791C271.042 146.591 269.255 144.803 267.054 144.803ZM267.054 154.292C264.029 154.292 261.554 151.816 261.554 148.791C261.554 145.766 264.029 143.291 267.054 143.291C270.08 143.291 272.555 145.766 272.555 148.791C272.555 151.816 270.08 154.292 267.054 154.292Z" fill="#FFC24D"></path><path d="M302.944 239.413C301.707 239.413 300.744 240.376 300.744 241.613V245.326C300.744 246.564 301.707 247.526 302.944 247.526H306.657C307.895 247.526 308.858 246.564 308.858 245.326V241.338C308.858 240.238 308.032 239.413 306.932 239.413H302.944Z" fill="#FFC04D"></path><path d="M302.944 367C301.707 367 300.744 367.963 300.744 369.2V372.913C300.744 374.151 301.707 375.113 302.944 375.113H306.657C307.895 375.113 308.858 374.151 308.858 372.913V368.925C308.858 367.825 308.032 367 306.932 367H302.944Z" fill="#FFC04D"></path><path d="M47.9922 145.353C46.7546 145.353 45.792 146.316 45.792 147.553V151.266C45.792 152.504 46.7546 153.466 47.9922 153.466H51.7051C52.9427 153.466 53.9054 152.504 53.9054 151.266V147.278C53.9054 146.178 53.0803 145.353 51.9801 145.353H47.9922Z" fill="#FFC24D"></path><path d="M350.8 245.464C350.662 245.464 350.525 245.464 350.387 245.326L338.423 238.175C338.148 238.038 338.011 237.763 338.011 237.488C338.011 237.213 338.148 236.938 338.423 236.8L350.387 229.375C350.8 229.099 351.212 229.237 351.35 229.65C351.625 230.062 351.487 230.475 351.075 230.612L340.211 237.35L351.075 243.814C351.487 244.089 351.487 244.501 351.35 244.776C351.35 245.326 351.075 245.464 350.8 245.464Z" fill="#7DCFA6"></path><path d="M372.389 230.2L384.352 237.625L372.389 244.776" fill="white"></path><path d="M372.802 245.464L371.977 244.226L382.84 237.763L371.977 231.025L372.802 229.787L384.765 237.213C385.04 237.35 385.178 237.625 385.178 237.9C385.178 238.176 385.04 238.451 384.765 238.588L372.802 245.464Z" fill="#29B270"></path><path d="M359.052 245.464C358.914 245.464 358.914 245.464 358.777 245.464C358.364 245.326 358.227 244.914 358.364 244.501L364.827 229.925C364.965 229.512 365.377 229.375 365.79 229.512C366.202 229.65 366.34 230.062 366.202 230.475L359.739 245.051C359.602 245.326 359.327 245.464 359.052 245.464Z" fill="#7DCFA6"></path><path d="M410.343 299.645V288.781C410.343 288.231 410.755 287.818 411.168 287.818H448.434C448.847 287.818 449.259 288.231 449.259 288.781V299.645C449.259 300.195 448.847 300.607 448.434 300.607H411.168C410.755 300.607 410.343 300.195 410.343 299.645Z" fill="#29B270"></path><path d="M404.155 287.818H330.722C330.172 287.818 329.76 288.231 329.76 288.781V299.507C329.76 300.057 330.172 300.47 330.722 300.47H404.155C404.705 300.47 405.118 300.057 405.118 299.507V288.781C405.255 288.231 404.705 287.818 404.155 287.818ZM403.743 299.095H331.272V289.331H403.743V299.095Z" fill="#FFC24D"></path><path d="M379.126 276.679H350.385C349.835 276.679 349.423 276.267 349.423 275.717V264.99C349.423 264.44 349.835 264.028 350.385 264.028H379.126C379.676 264.028 380.089 264.44 380.089 264.99V275.717C380.089 276.267 379.676 276.679 379.126 276.679Z" fill="#D4F0E2"></path><path d="M386.828 275.992C386.69 275.992 386.553 275.854 386.553 275.717V264.991C386.553 264.853 386.69 264.716 386.828 264.716H448.297C448.434 264.716 448.572 264.853 448.572 264.991V275.717C448.572 275.854 448.434 275.992 448.297 275.992H386.828Z" fill="white"></path><path d="M448.436 263.891H386.966C386.416 263.891 386.004 264.303 386.004 264.853V275.579C386.004 276.129 386.416 276.542 386.966 276.542H448.436C448.986 276.542 449.398 276.129 449.398 275.579V264.853C449.398 264.441 448.986 263.891 448.436 263.891ZM447.885 275.167H387.379V265.403H447.885V275.167Z" fill="#29B270"></path></svg> 